<?xml version="1.0" encoding="UTF-8"?> <svg xmlns="http://www.w3.org/2000/svg" id="Capa_1" height="512" viewBox="0 0 512 512" width="512"><g><path d="m421 151.003c0-51.177-50.348-87.338-98.769-71.145-19.215-47.802-65.652-79.858-118.481-79.858-80.018 0-140.482 73.034-125.496 151.763-44.097 5.773-78.254 43.591-78.254 89.237 0 49.626 40.374 90 90 90h31v166c0 8.284 6.716 15 15 15h240c8.284 0 15-6.716 15-15v-166h31c49.626 0 90-40.374 90-90 0-49.484-40.411-90.516-91-89.997zm-60 330.997h-210v-270h135v60c0 8.284 6.716 15 15 15h60zm-21.213-225h-23.787v-23.787zm82.213 44h-31v-29c0-4.04-1.656-7.87-4.396-10.609l-74.995-74.995c-2.769-2.769-6.604-4.396-10.609-4.396h-165c-8.284 0-15 6.716-15 15v104h-31c-33.084 0-60-26.916-60-60 0-35.472 30.744-63.344 66.259-59.675 10.986 1.143 19.434-9.648 15.634-20.063-23.242-63.683 24.184-131.262 91.857-131.262 45.13 0 84.163 30.564 94.92 74.326 2.459 10.002 14.091 14.645 22.77 8.977 34.763-22.708 79.762 10.447 67.648 50.69-3.357 11.156 6.772 21.734 18.063 18.859 37.961-9.655 74.849 19.101 74.849 58.148 0 33.084-26.916 60-60 60z"></path><path d="m266.582 336.369c-5.837-5.835-15.344-5.869-21.213 0l-30 30c-5.858 5.858-5.858 15.355 0 21.213 5.857 5.858 15.355 5.858 21.213 0l4.418-4.418v53.836c0 8.284 6.716 15 15 15s15-6.716 15-15v-53.787l4.394 4.393c5.857 5.858 15.355 5.859 21.213 0 5.858-5.858 5.858-15.355 0-21.213-14.341-14.34-20.807-20.808-30.025-30.024z"></path></g></svg> 