<?xml version="1.0" encoding="UTF-8"?> <svg xmlns="http://www.w3.org/2000/svg" id="Layer_3" height="512" viewBox="0 0 64 64" width="512"><g><path d="m36 23h-4-4c-1.654 0-3 1.346-3 3v11c0 .553.447 1 1 1h1v12c0 .553.447 1 1 1h8c.553 0 1-.447 1-1v-12h1c.553 0 1-.447 1-1v-11c0-1.654-1.346-3-3-3zm-7 15h2v11h-2zm6 11h-2v-11h2zm2-13h-1v-9h-2v9h-4v-9h-2v9h-1v-10c0-.551.448-1 1-1h8c.552 0 1 .449 1 1z"></path><path d="m36 19v-2c0-2.206-1.794-4-4-4s-4 1.794-4 4v2c0 2.206 1.794 4 4 4s4-1.794 4-4zm-2 0c0 1.103-.897 2-2 2s-2-.897-2-2v-2c0-1.103.897-2 2-2s2 .897 2 2z"></path><path d="m60 11h-4-4c-1.654 0-3 1.346-3 3v6c0 .552.447 1 1 1h12c.553 0 1-.448 1-1v-6c0-1.654-1.346-3-3-3zm1 8h-1v-4h-2v4h-4v-4h-2v4h-1v-5c0-.551.448-1 1-1h8c.552 0 1 .449 1 1z"></path><path d="m60 7v-2c0-2.206-1.794-4-4-4s-4 1.794-4 4v2c0 2.206 1.794 4 4 4s4-1.794 4-4zm-2 0c0 1.103-.897 2-2 2s-2-.897-2-2v-2c0-1.103.897-2 2-2s2 .897 2 2z"></path><path d="m60 53h-4-4c-1.654 0-3 1.346-3 3v6c0 .553.447 1 1 1h12c.553 0 1-.447 1-1v-6c0-1.654-1.346-3-3-3zm1 8h-1v-4h-2v4h-4v-4h-2v4h-1v-5c0-.552.448-1 1-1h8c.552 0 1 .448 1 1z"></path><path d="m60 49v-2c0-2.206-1.794-4-4-4s-4 1.794-4 4v2c0 2.206 1.794 4 4 4s4-1.794 4-4zm-2 0c0 1.103-.897 2-2 2s-2-.897-2-2v-2c0-1.103.897-2 2-2s2 .897 2 2z"></path><path d="m12 53h-4-4c-1.654 0-3 1.346-3 3v6c0 .553.447 1 1 1h12c.553 0 1-.447 1-1v-6c0-1.654-1.346-3-3-3zm1 8h-1v-4h-2v4h-4v-4h-2v4h-1v-5c0-.552.448-1 1-1h8c.552 0 1 .448 1 1z"></path><path d="m12 49v-2c0-2.206-1.794-4-4-4s-4 1.794-4 4v2c0 2.206 1.794 4 4 4s4-1.794 4-4zm-2 0c0 1.103-.897 2-2 2s-2-.897-2-2v-2c0-1.103.897-2 2-2s2 .897 2 2z"></path><path d="m12 11h-4-4c-1.654 0-3 1.346-3 3v6c0 .552.447 1 1 1h12c.553 0 1-.448 1-1v-6c0-1.654-1.346-3-3-3zm1 8h-1v-4h-2v4h-4v-4h-2v4h-1v-5c0-.551.448-1 1-1h8c.552 0 1 .449 1 1z"></path><path d="m12 7v-2c0-2.206-1.794-4-4-4s-4 1.794-4 4v2c0 2.206 1.794 4 4 4s4-1.794 4-4zm-2 0c0 1.103-.897 2-2 2s-2-.897-2-2v-2c0-1.103.897-2 2-2s2 .897 2 2z"></path><path d="m46 17h-4v2h1.586l-3.293 3.293 1.414 1.414 3.293-3.293v1.586h2v-4c0-.552-.447-1-1-1z"></path><path d="m22 19v-2h-4c-.553 0-1 .448-1 1v4h2v-1.586l3.293 3.293 1.414-1.414-3.293-3.293z"></path><path d="m45 43.586-3.293-3.293-1.414 1.414 3.293 3.293h-1.586v2h4c.553 0 1-.447 1-1v-4h-2z"></path><path d="m22.293 40.293-3.293 3.293v-1.586h-2v4c0 .553.447 1 1 1h4v-2h-1.586l3.293-3.293z"></path></g></svg> 